<svg width="186" height="30" viewBox="0 0 186 30" fill="none" xmlns="http://www.w3.org/2000/svg">
<g clip-path="url(#clip0_1_2)">
<path d="M31.4 29L31.36 0.999998H27.08L16.16 19.56L5.04 0.999998H0.760002V29H5.72V10.68L14.92 25.8H17.24L26.44 10.44L26.48 29H31.4ZM58.4831 29H64.5631L52.0831 13.52L63.8431 0.999998H58.0031L44.1631 15.36V0.999998H38.9631V29H44.1631V21.84L48.6031 17.28L58.4831 29ZM76.1978 29.4C83.8778 29.4 87.5178 25.56 87.5178 21.08C87.5178 10.8 70.9178 14.68 70.9178 8.72C70.9178 6.6 72.6778 4.92 76.9978 4.92C79.4378 4.92 82.1978 5.64 84.7178 7.12L86.3578 3.08C83.9178 1.48 80.3978 0.599998 77.0378 0.599998C69.3578 0.599998 65.7578 4.44 65.7578 8.96C65.7578 19.36 82.3978 15.4 82.3978 21.44C82.3978 23.52 80.5578 25.08 76.1978 25.08C72.7578 25.08 69.1978 23.8 66.9578 22L65.1578 26.04C67.4778 28.04 71.8378 29.4 76.1978 29.4Z" fill="white"/>
<path d="M103.12 26.1C106.58 26.1 108.16 24.38 108.16 22.4C108.16 17.32 99.42 19.8 99.42 15.6C99.42 14.06 100.64 12.8 103.36 12.8C104.62 12.8 106.04 13.18 107.2 13.98L107.58 13.16C106.5 12.38 104.9 11.9 103.36 11.9C99.92 11.9 98.4 13.64 98.4 15.62C98.4 20.78 107.14 18.26 107.14 22.46C107.14 23.98 105.9 25.2 103.1 25.2C101.22 25.2 99.44 24.44 98.48 23.44L98.02 24.2C99.04 25.32 101.04 26.1 103.12 26.1ZM111.808 13.02C112.268 13.02 112.628 12.66 112.628 12.2C112.628 11.76 112.268 11.4 111.808 11.4C111.348 11.4 110.988 11.78 110.988 12.22C110.988 12.66 111.348 13.02 111.808 13.02ZM111.308 26H112.308V15.56H111.308V26ZM119.162 26.08C121.822 26.08 123.282 24.92 123.282 23.22C123.282 19.24 116.362 21.46 116.362 18.32C116.362 17.2 117.262 16.36 119.302 16.36C120.422 16.36 121.562 16.66 122.442 17.3L122.902 16.5C122.082 15.88 120.642 15.48 119.322 15.48C116.682 15.48 115.362 16.76 115.362 18.34C115.362 22.44 122.282 20.2 122.282 23.24C122.282 24.42 121.402 25.2 119.202 25.2C117.662 25.2 116.242 24.62 115.442 23.94L114.982 24.74C115.802 25.5 117.442 26.08 119.162 26.08ZM130.833 24.64C130.413 25.02 129.833 25.22 129.213 25.22C127.933 25.22 127.273 24.48 127.273 23.14V16.42H130.593V15.56H127.273V13.28H126.273V15.56H124.353V16.42H126.273V23.24C126.273 25 127.273 26.08 129.113 26.08C129.893 26.08 130.733 25.84 131.253 25.34L130.833 24.64ZM142.511 20.74C142.511 17.64 140.391 15.48 137.531 15.48C134.671 15.48 132.531 17.68 132.531 20.78C132.531 23.88 134.751 26.08 137.911 26.08C139.491 26.08 140.931 25.5 141.851 24.38L141.271 23.72C140.471 24.7 139.251 25.18 137.931 25.18C135.431 25.18 133.611 23.5 133.511 21.02H142.491C142.491 20.92 142.511 20.82 142.511 20.74ZM137.531 16.36C139.751 16.36 141.391 17.98 141.531 20.24H133.531C133.691 17.96 135.311 16.36 137.531 16.36ZM158.604 15.48C156.584 15.48 155.064 16.48 154.384 18C153.824 16.34 152.444 15.48 150.564 15.48C148.664 15.48 147.244 16.34 146.564 17.8V15.56H145.604V26H146.604V20.44C146.604 17.96 148.064 16.38 150.424 16.38C152.464 16.38 153.684 17.62 153.684 19.98V26H154.684V20.44C154.684 17.96 156.144 16.38 158.504 16.38C160.544 16.38 161.764 17.62 161.764 19.98V26H162.764V19.9C162.764 16.98 161.124 15.48 158.604 15.48ZM170.413 15.48C168.793 15.48 167.273 16.04 166.233 16.96L166.733 17.68C167.593 16.9 168.893 16.36 170.333 16.36C172.373 16.36 173.433 17.4 173.433 19.34V20.18H169.853C166.953 20.18 165.953 21.52 165.953 23.1C165.953 24.88 167.373 26.08 169.713 26.08C171.533 26.08 172.813 25.34 173.473 24.14V26H174.433V19.38C174.433 16.8 172.993 15.48 170.413 15.48ZM169.853 25.26C168.013 25.26 166.953 24.42 166.953 23.06C166.953 21.86 167.713 20.96 169.873 20.96H173.433V22.92C172.833 24.42 171.613 25.26 169.853 25.26ZM181.194 26.08C183.854 26.08 185.314 24.92 185.314 23.22C185.314 19.24 178.394 21.46 178.394 18.32C178.394 17.2 179.294 16.36 181.334 16.36C182.454 16.36 183.594 16.66 184.474 17.3L184.934 16.5C184.114 15.88 182.674 15.48 181.354 15.48C178.714 15.48 177.394 16.76 177.394 18.34C177.394 22.44 184.314 20.2 184.314 23.24C184.314 24.42 183.434 25.2 181.234 25.2C179.694 25.2 178.274 24.62 177.474 23.94L177.014 24.74C177.834 25.5 179.474 26.08 181.194 26.08Z" fill="white"/>
</g>
<defs>
<clipPath id="clip0_1_2">
<rect width="186" height="30" fill="white"/>
</clipPath>
</defs>
</svg>
